<svg width="21" height="21" viewBox="0 0 21 21" fill="none" xmlns="http://www.w3.org/2000/svg">
	<path d="M20.144 10.1944C20.144 4.67167 15.6438 0.194397 10.0926 0.194397C5.05324 0.194397 0.892416 3.88758 0.165517 8.69985L7.42857 8.69985V6.22576H10.0707V8.69985H11.8288C14.7396 8.69985 16.0175 10.1108 16.0175 12.5176C16.0175 13.6703 15.9316 14.2799 15.8923 14.5685H13.586V12.9267C13.586 11.9049 12.6123 11.548 11.5149 11.548H10.0707V14.5426L7.42857 14.1362V11.548L0.144043 11.548C0.80972 16.4289 5.00435 20.1944 10.0926 20.1944C15.6438 20.1944 20.144 15.7171 20.144 10.1944Z" fill="#29A9FF"/>
</svg>