<svg width="20" height="20" viewBox="0 0 20 20" fill="none" xmlns="http://www.w3.org/2000/svg">
	<path d="M20 9.99875C20 4.4775 15.4094 0 9.74656 0C5.21727 0 1.37478 2.865 0.0177815 6.84C-0.076685 7.34 0.239906 7.5225 0.511816 7.5225C0.755642 7.5225 1.40031 7.51375 2.25562 7.50875C1.63648 4.7275 3.63049 4.14 3.63049 4.14C4.81515 3.68625 5.13046 3.03 5.13046 3.03C5.7662 2.12125 5.75343 3.0975 5.75343 3.0975C5.68067 4.10125 4.69643 4.62875 4.69643 4.62875C3.13007 5.52125 3.58198 6.97 3.84495 7.54C4.50749 7.63 4.9594 7.88875 5.21599 8.175C5.47514 5.955 6.3547 3.62 10.2827 3.62C11.4023 3.62 12.3176 4.01 13.035 4.65C13.2942 4.54625 14.3371 4.20375 15.7477 4.7475C15.7477 4.7475 16.0235 5.5875 14.6971 7.4975C14.9243 8.295 15.038 9.15 15.0418 10.0013C15.0367 10.85 14.9243 11.7062 14.6958 12.505C16.0222 14.4137 15.7465 15.2525 15.7465 15.2525C14.3346 15.7975 13.2929 15.455 13.0337 15.3525C12.3163 15.9937 11.401 16.38 10.2814 16.38C6.34321 16.38 5.47641 14.0425 5.22238 11.815C4.90579 12.1737 4.28026 12.4937 3.32411 12.4937C1.95307 12.4937 0.847555 12.4812 0.511816 12.4812C0.237352 12.4812 -0.0817908 12.6612 0.0190586 13.1687C1.37733 17.1375 5.21855 20 9.74656 20C15.4094 20 20 15.5225 20 9.99875Z" fill="#29A9FF"/>
</svg>