<svg width="21" height="21" viewBox="0 0 21 21" fill="none" xmlns="http://www.w3.org/2000/svg">
	<path d="M20.1041 6.15682C20.1041 2.82334 17.385 0.104187 14.0515 0.104187L6.15676 0.104187C2.82373 0.104187 0.104125 2.82325 0.104125 6.15682V14.0516C0.104125 17.3847 2.82363 20.1042 6.15676 20.1042H14.0515C17.3851 20.1042 20.1041 17.3846 20.1041 14.0516V6.15682ZM18.5252 6.15682V14.0516C18.5252 16.5312 16.5316 18.5252 14.0515 18.5252H6.15676C3.67725 18.5252 1.68307 16.5311 1.68307 14.0516V6.15682C1.68307 3.67671 3.67716 1.68313 6.15676 1.68313L14.0515 1.68313C16.5317 1.68313 18.5252 3.67661 18.5252 6.15682ZM16.4199 15.3673C16.4199 14.7858 15.9489 14.3147 15.3673 14.3147C14.7857 14.3147 14.3147 14.7858 14.3147 15.3673C14.3147 15.9489 14.7857 16.42 15.3673 16.42C15.9489 16.42 16.4199 15.9489 16.4199 15.3673ZM15.3673 10.1042C15.3673 7.20691 13.0014 4.84103 10.1041 4.84103C7.20685 4.84103 4.84097 7.20691 4.84097 10.1042C4.84097 13.0015 7.20685 15.3673 10.1041 15.3673C13.0014 15.3673 15.3673 13.0015 15.3673 10.1042ZM13.7883 10.1042C13.7883 12.148 12.1479 13.7884 10.1041 13.7884C8.06035 13.7884 6.41991 12.148 6.41991 10.1042C6.41991 8.06041 8.06035 6.41998 10.1041 6.41998C12.1479 6.41998 13.7883 8.06041 13.7883 10.1042Z" fill="#29A9FF"/>
</svg>