<svg width="21" height="21" viewBox="0 0 21 21" fill="none" xmlns="http://www.w3.org/2000/svg">
	<path d="M6.15676 0.104187C2.82328 0.104187 0.104126 2.82334 0.104126 6.15682V14.0516C0.104126 17.3846 2.82318 20.1042 6.15676 20.1042H14.0515C17.3846 20.1042 20.1041 17.3847 20.1041 14.0516V6.15682C20.1041 2.82325 17.3845 0.104187 14.0515 0.104187H6.15676ZM6.15676 1.68313H14.0515C16.5311 1.68313 18.5252 3.67671 18.5252 6.15682V14.0516C18.5252 16.5311 16.531 18.5252 14.0515 18.5252H6.15676C3.67665 18.5252 1.68307 16.5312 1.68307 14.0516V6.15682C1.68307 3.67661 3.67655 1.68313 6.15676 1.68313ZM15.3673 3.7884C14.7857 3.7884 14.3147 4.25945 14.3147 4.84103C14.3147 5.42261 14.7857 5.89366 15.3673 5.89366C15.9489 5.89366 16.4199 5.42261 16.4199 4.84103C16.4199 4.25945 15.9489 3.7884 15.3673 3.7884ZM10.1041 4.84103C7.20685 4.84103 4.84097 7.20691 4.84097 10.1042C4.84097 13.0015 7.20685 15.3673 10.1041 15.3673C13.0014 15.3673 15.3673 13.0015 15.3673 10.1042C15.3673 7.20691 13.0014 4.84103 10.1041 4.84103ZM10.1041 6.41998C12.1479 6.41998 13.7883 8.06041 13.7883 10.1042C13.7883 12.148 12.1479 13.7884 10.1041 13.7884C8.06035 13.7884 6.41992 12.148 6.41992 10.1042C6.41992 8.06041 8.06035 6.41998 10.1041 6.41998Z" fill="#29A9FF"/>
</svg>