<svg width="21" height="21" viewBox="0 0 21 21" fill="none" xmlns="http://www.w3.org/2000/svg">
	<path d="M0.199951 10.2C0.199951 15.7254 4.67453 20.2 10.2 20.2C15.7254 20.2 20.2 15.7254 20.2 10.2C20.2 4.67459 15.7254 0.200012 10.2 0.200012C4.67453 0.200012 0.199951 4.67459 0.199951 10.2ZM10.4203 4.77628L14.1406 14.4204C14.3101 14.8695 14.0305 15.2593 13.361 15.1153L5.62368 13.4712C5.07283 13.3526 4.93724 13.0305 5.19995 12.5729L7.03893 10.0729L5.87792 8.86103C5.74232 8.72544 5.63215 8.61527 5.63215 8.36103L8.17453 8.539L12.3694 13.1746C12.5474 13.378 12.6406 13.1322 12.4711 12.8695L8.86097 7.14069L9.63215 4.67459C9.80164 4.13222 10.1661 4.12374 10.4203 4.78476V4.77628Z" fill="#29A9FF"/>
</svg>