<svg width="21" height="21" viewBox="0 0 21 21" fill="none" xmlns="http://www.w3.org/2000/svg">
	<path d="M10.2 20.2C15.7254 20.2 20.2 15.7254 20.2 10.2C20.2 4.67459 15.7254 0.200012 10.2 0.200012C4.67453 0.200012 0.199951 4.67459 0.199951 10.2C0.199951 15.7254 4.67453 20.2 10.2 20.2ZM4.77622 9.97967L14.4203 6.25933C14.8694 6.08984 15.2593 6.3695 15.1152 7.039L13.4711 14.7763C13.3525 15.3271 13.0305 15.4627 12.5728 15.2L10.0728 13.361L8.86097 14.522C8.72538 14.6576 8.61521 14.7678 8.36097 14.7678L8.53894 12.2254L13.1745 8.03052C13.3779 7.85256 13.1322 7.75933 12.8694 7.92883L7.14063 11.539L4.67453 10.7678C4.13216 10.5983 4.12368 10.2339 4.7847 9.97967H4.77622Z" fill="#29A9FF"/>
</svg>